<svg width="50" height="50" viewBox="0 0 50 50" fill="none" xmlns="http://www.w3.org/2000/svg">
<circle cx="25" cy="18.7497" r="3.65646" stroke="#222222" stroke-width="1.02041" stroke-linecap="round"/>
<path d="M32.2501 16.9214C32.735 16.0816 33.5336 15.4688 34.4703 15.2178C35.407 14.9668 36.4051 15.0982 37.2449 15.5831C38.0847 16.068 38.6975 16.8666 38.9485 17.8033C39.1995 18.74 39.0681 19.7381 38.5833 20.5779C38.0984 21.4177 37.2997 22.0306 36.363 22.2815C35.4263 22.5325 34.4283 22.4011 33.5884 21.9163C32.7486 21.4314 32.1358 20.6327 31.8848 19.696C31.6338 18.7593 31.7652 17.7613 32.2501 16.9214L32.2501 16.9214Z" stroke="#222222" stroke-width="1.02041"/>
<path d="M11.4167 16.9214C11.9016 16.0816 12.7003 15.4688 13.637 15.2178C14.5737 14.9668 15.5717 15.0982 16.4116 15.5831C17.2514 16.068 17.8642 16.8666 18.1152 17.8033C18.3662 18.74 18.2348 19.7381 17.7499 20.5779C17.265 21.4177 16.4664 22.0306 15.5297 22.2815C14.593 22.5325 13.5949 22.4011 12.7551 21.9163C11.9153 21.4314 11.3024 20.6327 11.0515 19.696C10.8005 18.7593 10.9319 17.7613 11.4167 16.9214L11.4167 16.9214Z" stroke="#222222" stroke-width="1.02041"/>
<path d="M42.4248 32.3175L42.9209 32.1986L42.9209 32.1986L42.4248 32.3175ZM29.375 27.4699L29.0784 27.0548L28.5352 27.4429L29.0523 27.8651L29.375 27.4699ZM32.0425 32.3122L32.5418 32.2072L32.5418 32.2072L32.0425 32.3122ZM40.6249 33.8651H30.2083V34.8856H40.6249V33.8651ZM41.9286 32.4364C42.1028 33.1631 41.5231 33.8651 40.6249 33.8651V34.8856C42.0279 34.8856 43.2831 33.7096 42.9209 32.1986L41.9286 32.4364ZM34.375 26.5522C37.0631 26.5522 38.7935 27.455 39.926 28.6113C41.0723 29.7818 41.6449 31.2529 41.9286 32.4364L42.9209 32.1986C42.6131 30.9144 41.9774 29.2477 40.655 27.8974C39.3187 26.5329 37.32 25.5318 34.375 25.5318V26.5522ZM29.6716 27.8851C30.7668 27.1027 32.2764 26.5522 34.375 26.5522V25.5318C32.087 25.5318 30.3647 26.1359 29.0784 27.0548L29.6716 27.8851ZM29.0523 27.8651C30.5514 29.0891 31.236 30.9558 31.5432 32.4171L32.5418 32.2072C32.2157 30.656 31.4627 28.5158 29.6977 27.0747L29.0523 27.8651ZM31.5432 32.4171C31.7 33.1634 31.1022 33.8651 30.2083 33.8651V34.8856C31.6157 34.8856 32.8583 33.7129 32.5418 32.2072L31.5432 32.4171Z" fill="#222222"/>
<path d="M20.625 27.4699L20.9477 27.8651L21.4648 27.4429L20.9216 27.0548L20.625 27.4699ZM7.57524 32.3175L8.07139 32.4364L8.07139 32.4364L7.57524 32.3175ZM17.9575 32.3122L18.4568 32.4171L18.4568 32.4171L17.9575 32.3122ZM15.625 26.5522C17.7236 26.5522 19.2333 27.1027 20.3284 27.885L20.9216 27.0548C19.6353 26.1359 17.913 25.5318 15.625 25.5318V26.5522ZM8.07139 32.4364C8.35506 31.2529 8.92776 29.7818 10.0741 28.6113C11.2066 27.455 12.937 26.5522 15.625 26.5522V25.5318C12.6801 25.5318 10.6813 26.5329 9.34505 27.8974C8.02258 29.2477 7.38689 30.9144 7.07909 32.1985L8.07139 32.4364ZM9.37506 33.8651C8.47685 33.8651 7.8972 33.1631 8.07139 32.4364L7.07909 32.1985C6.71691 33.7096 7.97206 34.8856 9.37506 34.8856V33.8651ZM19.7916 33.8651H9.37506V34.8856H19.7916V33.8651ZM19.7916 33.8651C18.8977 33.8651 18.2999 33.1634 18.4568 32.4171L17.4582 32.2072C17.1417 33.7129 18.3843 34.8856 19.7916 34.8856V33.8651ZM18.4568 32.4171C18.7639 30.9558 19.4486 29.0891 20.9477 27.8651L20.3023 27.0747C18.5372 28.5158 17.7842 30.656 17.4582 32.2072L18.4568 32.4171Z" fill="#222222"/>
<path d="M25 26.042C29.9254 26.042 31.5238 29.8443 32.0425 32.3121C32.2791 33.4381 31.3589 34.3753 30.2083 34.3753H19.7917C18.6411 34.3753 17.7209 33.4381 17.9575 32.3121C18.4762 29.8443 20.0746 26.042 25 26.042Z" stroke="#222222" stroke-width="1.02041" stroke-linecap="round"/>
</svg>
