<svg width="39" height="39" viewBox="0 0 39 39" fill="none" xmlns="http://www.w3.org/2000/svg">
<path d="M38.3079 19.0708C38.3079 29.3191 29.8525 37.6417 19.4039 37.6417C8.95538 37.6417 0.5 29.3191 0.5 19.0708C0.5 8.82257 8.95538 0.5 19.4039 0.5C29.8525 0.5 38.3079 8.82257 38.3079 19.0708Z" stroke="black"/>
<path d="M22.8893 16.5625C22.8893 18.3666 21.3989 19.8438 19.542 19.8438C17.6851 19.8438 16.1947 18.3666 16.1947 16.5625C16.1947 14.7585 17.6851 13.2812 19.542 13.2812C21.3989 13.2812 22.8893 14.7585 22.8893 16.5625Z" stroke="#222222" stroke-linecap="round"/>
<path d="M13.0336 23.9374C13.6285 22.4709 15.1705 21.7617 16.7531 21.7617H22.3309C23.9135 21.7617 25.4555 22.4709 26.0504 23.9374C26.3692 24.7235 26.6475 25.6888 26.7306 26.7763C26.7582 27.1384 26.4613 27.4336 26.0981 27.4336H12.9859C12.6227 27.4336 12.3258 27.1384 12.3534 26.7763C12.4365 25.6888 12.7148 24.7235 13.0336 23.9374Z" stroke="#222222" stroke-linecap="round"/>
</svg>
