<svg width="50" height="50" viewBox="0 0 50 50" fill="none" xmlns="http://www.w3.org/2000/svg">
<path d="M49.5764 24.5708C49.5764 37.9001 38.5801 48.718 25 48.718C11.4199 48.718 0.423635 37.9001 0.423635 24.5708C0.423635 11.2416 11.4199 0.423635 25 0.423635C38.5801 0.423635 49.5764 11.2416 49.5764 24.5708Z" stroke="black" stroke-width="0.84727"/>
<path d="M29.3183 18.519C29.3183 20.9688 27.2956 22.9672 24.785 22.9672C22.2744 22.9672 20.2518 20.9688 20.2518 18.519C20.2518 16.0693 22.2744 14.0709 24.785 14.0709C27.2956 14.0709 29.3183 16.0693 29.3183 18.519Z" stroke="#222222" stroke-width="0.84727" stroke-linecap="round"/>
<path d="M16.4 28.0209C17.1664 26.1315 19.1532 25.2178 21.1922 25.2178H28.3786C30.4176 25.2178 32.4043 26.1315 33.1708 28.0209C33.5816 29.0337 33.9401 30.2774 34.0471 31.6785C34.0828 32.1451 33.7002 32.5255 33.2323 32.5255H16.3385C15.8705 32.5255 15.488 32.1451 15.5236 31.6785C15.6306 30.2774 15.9892 29.0337 16.4 28.0209Z" stroke="#222222" stroke-width="0.84727" stroke-linecap="round"/>
</svg>
