<svg width="39" height="39" viewBox="0 0 39 39" fill="none" xmlns="http://www.w3.org/2000/svg">
<path d="M38.3079 19.0708C38.3079 29.3191 29.8525 37.6417 19.4039 37.6417C8.95538 37.6417 0.5 29.3191 0.5 19.0708C0.5 8.82257 8.95538 0.5 19.4039 0.5C29.8525 0.5 38.3079 8.82257 38.3079 19.0708Z" stroke="black"/>
<path d="M10.8994 12.0674H12.6652C13.205 12.0674 13.4749 12.0674 13.6781 12.2138C13.8813 12.3603 13.9666 12.6163 14.1373 13.1284L14.7451 14.9516" stroke="#222222" stroke-linecap="round"/>
<path d="M24.3592 24.5659H15.2747C14.903 24.5659 14.7171 24.5659 14.5835 24.5149C14.2942 24.4045 14.0982 24.1326 14.0849 23.8232C14.0788 23.6803 14.1376 23.504 14.2552 23.1513V23.1513C14.3855 22.7603 14.4507 22.5647 14.5507 22.4061C14.7651 22.0658 15.1032 21.8221 15.4938 21.7263C15.6759 21.6816 15.882 21.6816 16.2943 21.6816H21.475" stroke="#222222" stroke-linecap="round" stroke-linejoin="round"/>
<path d="M21.5968 21.6821H17.7529C16.7604 21.6821 16.2641 21.6821 15.8755 21.4258C15.4868 21.1695 15.2913 20.7134 14.9004 19.8011L14.2127 18.1966C13.5846 16.7311 13.2706 15.9984 13.6156 15.4753C13.9605 14.9521 14.7577 14.9521 16.3521 14.9521H23.2327C25.0164 14.9521 25.9083 14.9521 26.2446 15.5318C26.581 16.1115 26.1385 16.8858 25.2536 18.4345L24.2914 20.1184C23.8554 20.8813 23.6374 21.2628 23.2762 21.4725C22.915 21.6821 22.4756 21.6821 21.5968 21.6821Z" stroke="#222222" stroke-linecap="round"/>
<circle cx="23.8785" cy="26.9692" r="0.961418" fill="#222222"/>
<circle cx="16.1872" cy="26.9692" r="0.961418" fill="#222222"/>
</svg>
