<svg width="50" height="50" viewBox="0 0 50 50" fill="none" xmlns="http://www.w3.org/2000/svg">
<circle cx="25" cy="25" r="24.6" stroke="black" stroke-opacity="0.91" stroke-width="0.799941"/>
<path d="M15.3369 16.577H17.6129C18.3086 16.577 18.6565 16.577 18.9184 16.7658C19.1803 16.9545 19.2903 17.2846 19.5103 17.9446L20.2936 20.2945" stroke="#222222" stroke-linecap="round"/>
<path d="M32.6855 32.6861H20.9765C20.4974 32.6861 20.2578 32.6861 20.0856 32.6204C19.7127 32.4781 19.4601 32.1277 19.443 31.7288C19.4352 31.5447 19.5109 31.3175 19.6624 30.8629V30.8629C19.8304 30.3589 19.9144 30.1069 20.0433 29.9024C20.3197 29.4638 20.7555 29.1497 21.2589 29.0262C21.4937 28.9686 21.7593 28.9686 22.2906 28.9686H28.968" stroke="#222222" stroke-linecap="round" stroke-linejoin="round"/>
<path d="M29.125 28.9686H24.1705C22.8913 28.9686 22.2517 28.9686 21.7507 28.6383C21.2498 28.308 20.9978 27.7201 20.4939 26.5443L19.6076 24.4762C18.7981 22.5874 18.3934 21.643 18.838 20.9687C19.2826 20.2944 20.3101 20.2944 22.365 20.2944H31.2334C33.5324 20.2944 34.682 20.2944 35.1155 21.0415C35.5491 21.7887 34.9788 22.7867 33.8381 24.7829L32.5979 26.9532C32.036 27.9365 31.755 28.4282 31.2895 28.6984C30.8239 28.9686 30.2576 28.9686 29.125 28.9686Z" stroke="#222222" stroke-linecap="round"/>
<circle cx="32.0663" cy="35.7841" r="1.23917" fill="#222222"/>
<circle cx="22.1523" cy="35.7841" r="1.23917" fill="#222222"/>
</svg>
