<svg width="39" height="39" viewBox="0 0 39 39" fill="none" xmlns="http://www.w3.org/2000/svg">
<ellipse cx="19.4039" cy="19.0708" rx="19.4039" ry="19.0708" fill="#FDE5A5"/>
<path d="M26.0833 19.5835C28.8416 19.5835 29.7366 21.7128 30.0271 23.0948C30.1597 23.7253 29.6443 24.2502 29 24.2502H23.1667C22.5223 24.2502 22.007 23.7253 22.1395 23.0948C22.43 21.7128 23.3251 19.5835 26.0833 19.5835Z" stroke="#222222" stroke-width="0.571429" stroke-linecap="round"/>
<circle cx="20" cy="15.4998" r="2.04762" stroke="#222222" stroke-width="0.571429" stroke-linecap="round"/>
<circle cx="25.6933" cy="15.4998" r="2.04762" stroke="#222222" stroke-width="0.571429" stroke-linecap="round"/>
<circle cx="14.4933" cy="15.4998" r="2.04762" stroke="#222222" stroke-width="0.571429" stroke-linecap="round"/>
<path d="M16.0562 23.0948L15.7766 23.036L16.0562 23.0948ZM23.9438 23.0948L23.6642 23.1535L23.9438 23.0948ZM22.9167 23.9644H17.0833V24.5359H22.9167V23.9644ZM16.3358 23.1535C16.4761 22.486 16.7586 21.6608 17.3196 21.0069C17.8712 20.3639 18.7059 19.8692 20 19.8692V19.2978C18.5359 19.2978 17.5439 19.8678 16.8859 20.6349C16.2371 21.3911 15.9268 22.3216 15.7766 23.036L16.3358 23.1535ZM20 19.8692C21.2941 19.8692 22.1288 20.3639 22.6805 21.0069C23.2414 21.6608 23.5239 22.486 23.6642 23.1535L24.2234 23.036C24.0732 22.3216 23.7629 21.3911 23.1142 20.6349C22.4561 19.8678 21.4641 19.2978 20 19.2978V19.8692ZM17.0833 23.9644C16.5828 23.9644 16.248 23.5715 16.3358 23.1535L15.7766 23.036C15.5994 23.8792 16.2952 24.5359 17.0833 24.5359V23.9644ZM22.9167 24.5359C23.7048 24.5359 24.4006 23.8792 24.2234 23.036L23.6642 23.1535C23.752 23.5715 23.4172 23.9644 22.9167 23.9644V24.5359Z" fill="#222222"/>
<path d="M14.0833 19.5835C16.8416 19.5835 17.7366 21.7128 18.0271 23.0948C18.1597 23.7253 17.6443 24.2502 17 24.2502H11.1667C10.5223 24.2502 10.007 23.7253 10.1395 23.0948C10.43 21.7128 11.3251 19.5835 14.0833 19.5835Z" stroke="#222222" stroke-width="0.571429" stroke-linecap="round"/>
<path d="M20 19.5835C22.7582 19.5835 23.6533 21.7128 23.9438 23.0948C24.0763 23.7253 23.561 24.2502 22.9167 24.2502H17.0833C16.439 24.2502 15.9237 23.7253 16.0562 23.0948C16.3467 21.7128 17.2418 19.5835 20 19.5835Z" fill="#FDE5A5" stroke="#222222" stroke-width="0.571429" stroke-linecap="round"/>
</svg>
