<svg width="39" height="39" viewBox="0 0 39 39" fill="none" xmlns="http://www.w3.org/2000/svg">
<circle cx="19.3965" cy="19.3965" r="19.3965" fill="#FDE5A5"/>
<path d="M12 16.2109C12 15.6098 12 15.3093 12.0858 15.0259C12.1716 14.7424 12.3384 14.4924 12.6718 13.9922L12.8125 13.7812C13.3938 12.9093 13.6845 12.4735 14.1266 12.2368C14.5688 12.0002 15.0928 12 16.1407 12H22.8593C23.9072 12 24.4312 12.0002 24.8733 12.2368C25.3155 12.4735 25.6062 12.9093 26.1875 13.7812L26.3282 13.9922C26.6616 14.4924 26.8284 14.7424 26.9142 15.0259C27 15.3093 27 15.6098 27 16.2109V23C27 24.8856 27 25.8283 26.4142 26.4141C25.8284 26.9998 24.8856 27 23 27H16C14.1144 27 13.1716 26.9998 12.5858 26.4141C12 25.8283 12 24.8856 12 23V16.2109Z" fill="#FDE5A5"/>
<path d="M16.5 19.5C16.5 20.2956 16.8161 21.0585 17.3787 21.6211C17.9413 22.1837 18.7044 22.5 19.5 22.5C20.2956 22.5 21.0587 22.1837 21.6213 21.6211C22.1839 21.0585 22.5 20.2956 22.5 19.5M12 17H27M22.8593 12H16.1407C15.0928 12 14.5688 12.0002 14.1266 12.2368C13.6845 12.4735 13.3938 12.9093 12.8125 13.7812L12.6718 13.9922C12.3384 14.4924 12.1716 14.7424 12.0858 15.0259C12 15.3093 12 15.6098 12 16.2109V23C12 24.8856 12 25.8283 12.5858 26.4141C13.1716 26.9998 14.1144 27 16 27H23C24.8856 27 25.8284 26.9998 26.4142 26.4141C27 25.8283 27 24.8856 27 23V16.2109C27 15.6098 27 15.3093 26.9142 15.0259C26.8284 14.7424 26.6616 14.4924 26.3282 13.9922L26.1875 13.7812C25.6062 12.9093 25.3155 12.4735 24.8733 12.2368C24.4312 12.0002 23.9072 12 22.8593 12Z" stroke="#222222"/>
</svg>
