<svg width="39" height="39" viewBox="0 0 39 39" fill="none" xmlns="http://www.w3.org/2000/svg">
<circle cx="19.3965" cy="19.3965" r="19.3965" fill="#FDE5A5"/>
<path d="M19 20V27.0979C19 27.4968 19 27.6962 18.8712 27.7676C18.7424 27.839 18.5733 27.7333 18.235 27.5219L11.94 23.5875C11.4805 23.3003 11.2507 23.1567 11.1254 22.9305C11 22.7043 11 22.4334 11 21.8915V15M19 20L11 15M19 20L24.2864 16.696C25.5043 15.9348 26.1132 15.5542 26.1132 15C26.1132 14.4458 25.5043 14.0652 24.2864 13.304L20.06 10.6625C19.5445 10.3403 19.2868 10.1792 19 10.1792C18.7132 10.1792 18.4555 10.3403 17.94 10.6625L11 15" stroke="#33363F" stroke-linejoin="round"/>
<path d="M26.5 19C26.5 19.2761 26.7239 19.5 27 19.5C27.2761 19.5 27.5 19.2761 27.5 19H26.5ZM26.8746 15.0695L26.4373 15.3119L26.8746 15.0695ZM26.5 16.1085V19H27.5V16.1085H26.5ZM26.325 13.9885L23.265 12.076L22.735 12.924L25.795 14.8365L26.325 13.9885ZM27.5 16.1085C27.5 15.847 27.5005 15.616 27.4821 15.423C27.4626 15.2194 27.4195 15.0211 27.312 14.8271L26.4373 15.3119C26.4552 15.3441 26.4747 15.3943 26.4866 15.5182C26.4995 15.6527 26.5 15.8281 26.5 16.1085H27.5ZM25.795 14.8365C26.0327 14.9851 26.1812 15.0785 26.2884 15.1607C26.3872 15.2364 26.4195 15.2797 26.4373 15.3119L27.312 14.8271C27.2045 14.6331 27.0592 14.4915 26.8968 14.367C26.7429 14.2491 26.5468 14.1271 26.325 13.9885L25.795 14.8365Z" fill="#33363F"/>
<circle cx="24.5" cy="23.5" r="2.5" stroke="#33363F"/>
<path d="M28 27L26.5 25.5" stroke="#33363F" stroke-linecap="round"/>
<path d="M21.265 27.174C21.4992 27.0276 21.5704 26.7192 21.424 26.485C21.2776 26.2508 20.9692 26.1796 20.735 26.326L21.265 27.174ZM18 27.375L17.735 27.799L18 27.375ZM18.9368 27.8188L18.9052 28.3178L18.9368 27.8188ZM19.0632 27.8188L19.0316 27.3198L19.0632 27.8188ZM18.265 26.951L15.265 25.076L14.735 25.924L17.735 27.799L18.265 26.951ZM20.735 26.326L20.235 26.6385L20.765 27.4865L21.265 27.174L20.735 26.326ZM20.235 26.6385L19.735 26.951L20.265 27.799L20.765 27.4865L20.235 26.6385ZM17.735 27.799C17.9554 27.9368 18.1491 28.0584 18.3201 28.1444C18.4999 28.2349 18.6878 28.304 18.9052 28.3178L18.9684 27.3198C18.9335 27.3175 18.8811 27.3073 18.7697 27.2512C18.6495 27.1907 18.5009 27.0984 18.265 26.951L17.735 27.799ZM19.735 26.951C19.4991 27.0984 19.3505 27.1907 19.2303 27.2512C19.1189 27.3073 19.0665 27.3175 19.0316 27.3198L19.0948 28.3178C19.3122 28.304 19.5001 28.2349 19.6799 28.1444C19.8509 28.0584 20.0446 27.9368 20.265 27.799L19.735 26.951ZM18.9052 28.3178C18.9683 28.3218 19.0317 28.3218 19.0948 28.3178L19.0316 27.3198C19.0106 27.3211 18.9894 27.3211 18.9684 27.3198L18.9052 28.3178Z" fill="#33363F"/>
</svg>
