<svg width="50" height="50" viewBox="0 0 50 50" fill="none" xmlns="http://www.w3.org/2000/svg">
<ellipse cx="25" cy="24.5708" rx="25" ry="24.5708" fill="#FDE5A5"/>
<path d="M29.3178 18.5188C29.3178 20.9685 27.2951 22.9669 24.7845 22.9669C22.2739 22.9669 20.2513 20.9685 20.2513 18.5188C20.2513 16.069 22.2739 14.0706 24.7845 14.0706C27.2951 14.0706 29.3178 16.069 29.3178 18.5188Z" stroke="#222222" stroke-width="0.84727" stroke-linecap="round"/>
<path d="M16.3993 28.0209C17.1657 26.1315 19.1525 25.2178 21.1914 25.2178H28.3779C30.4169 25.2178 32.4036 26.1315 33.17 28.0209C33.5809 29.0337 33.9394 30.2774 34.0464 31.6785C34.082 32.1451 33.6995 32.5255 33.2316 32.5255H16.3377C15.8698 32.5255 15.4873 32.1451 15.5229 31.6785C15.6299 30.2774 15.9885 29.0337 16.3993 28.0209Z" stroke="#222222" stroke-width="0.84727" stroke-linecap="round"/>
</svg>
