<svg width="50" height="50" viewBox="0 0 50 50" fill="none" xmlns="http://www.w3.org/2000/svg">
<circle cx="25" cy="25" r="25" fill="#FDE5A5"/>
<path d="M15.3372 16.5771H17.6131C18.3089 16.5771 18.6567 16.5771 18.9186 16.7659C19.1805 16.9547 19.2905 17.2847 19.5105 17.9447L20.2938 20.2946" stroke="#222222" stroke-linecap="round"/>
<path d="M32.6855 32.6862H20.9765C20.4974 32.6862 20.2578 32.6862 20.0856 32.6206C19.7127 32.4783 19.4601 32.1278 19.443 31.729C19.4352 31.5449 19.5109 31.3176 19.6624 30.863V30.863C19.8304 30.359 19.9144 30.107 20.0433 29.9025C20.3197 29.4639 20.7555 29.1498 21.2589 29.0263C21.4937 28.9688 21.7593 28.9688 22.2906 28.9688H28.968" stroke="#222222" stroke-linecap="round" stroke-linejoin="round"/>
<path d="M29.125 28.9691H24.1705C22.8913 28.9691 22.2517 28.9691 21.7507 28.6388C21.2498 28.3085 20.9978 27.7206 20.4939 26.5448L19.6076 24.4767C18.7981 22.5879 18.3934 21.6434 18.838 20.9692C19.2826 20.2949 20.3101 20.2949 22.365 20.2949H31.2334C33.5324 20.2949 34.682 20.2949 35.1155 21.042C35.5491 21.7891 34.9788 22.7872 33.8381 24.7833L32.5979 26.9536C32.036 27.937 31.755 28.4287 31.2895 28.6989C30.8239 28.9691 30.2576 28.9691 29.125 28.9691Z" stroke="#222222" stroke-linecap="round"/>
<circle cx="32.0658" cy="35.7841" r="1.23917" fill="#222222"/>
<circle cx="22.1525" cy="35.7841" r="1.23917" fill="#222222"/>
</svg>
