<svg width="39" height="39" viewBox="0 0 39 39" fill="none" xmlns="http://www.w3.org/2000/svg">
<path d="M38.4791 19.0708C38.4791 29.4164 29.9442 37.8128 19.4039 37.8128C8.86364 37.8128 0.328807 29.4164 0.328807 19.0708C0.328807 8.72524 8.86364 0.328807 19.4039 0.328807C29.9442 0.328807 38.4791 8.72524 38.4791 19.0708Z" stroke="black" stroke-width="0.657615"/>
<path d="M12 19.7595C12 18.4018 12 17.7229 12.2745 17.1262C12.5489 16.5294 13.0644 16.0876 14.0953 15.204L15.0953 14.3469C16.9586 12.7497 17.8902 11.9512 19 11.9512C20.1098 11.9512 21.0414 12.7497 22.9047 14.3469L23.9047 15.204C24.9356 16.0876 25.4511 16.5294 25.7255 17.1262C26 17.7229 26 18.4018 26 19.7595V23.9999C26 25.8856 26 26.8284 25.4142 27.4142C24.8284 27.9999 23.8856 27.9999 22 27.9999H16C14.1144 27.9999 13.1716 27.9999 12.5858 27.4142C12 26.8284 12 25.8856 12 23.9999V19.7595Z" stroke="#222222"/>
<path d="M21.5 28V23C21.5 22.4477 21.0523 22 20.5 22H17.5C16.9477 22 16.5 22.4477 16.5 23V28" stroke="#222222" stroke-linecap="round" stroke-linejoin="round"/>
</svg>
