<svg width="50" height="50" viewBox="0 0 50 50" fill="none" xmlns="http://www.w3.org/2000/svg">
<circle cx="25" cy="25" r="24.569" stroke="black" stroke-width="0.862069"/>
<path d="M16.3794 25.0003L16.0428 24.731L15.8274 25.0003L16.0428 25.2696L16.3794 25.0003ZM24.138 25.4313C24.3761 25.4313 24.569 25.2383 24.569 25.0003C24.569 24.7622 24.3761 24.5693 24.138 24.5693V25.4313ZM19.4911 20.4207L16.0428 24.731L16.716 25.2696L20.1643 20.9592L19.4911 20.4207ZM16.0428 25.2696L19.4911 29.5799L20.1643 29.0414L16.716 24.731L16.0428 25.2696ZM16.3794 25.4313H24.138V24.5693H16.3794V25.4313Z" fill="#222222"/>
<path d="M23.2759 21.6655V21.0247C23.2759 19.6295 23.2759 18.932 23.6845 18.4497C24.0931 17.9673 24.7811 17.8527 26.1573 17.6233L27.598 17.3832C30.3937 16.9172 31.7916 16.6842 32.7062 17.459C33.6207 18.2337 33.6207 19.6509 33.6207 22.4852V27.5149C33.6207 30.3493 33.6207 31.7664 32.7062 32.5412C31.7916 33.3159 30.3937 33.0829 27.598 32.617L26.1573 32.3769C24.7811 32.1475 24.0931 32.0328 23.6845 31.5505C23.2759 31.0682 23.2759 30.3706 23.2759 28.9755V28.5052" stroke="#222222" stroke-width="0.862069"/>
</svg>
