<svg width="65" height="83" viewBox="0 0 65 83" fill="none" xmlns="http://www.w3.org/2000/svg">
<path d="M0 62H12M36.5 62H12M12 62V82.5V45M12 45H0M12 45V4H41M12 45H41" stroke="black" stroke-width="8"/>
<path fill-rule="evenodd" clip-rule="evenodd" d="M38.5 48.9662C38.9962 48.995 39.4964 49.0096 40 49.0096C53.8071 49.0096 65 38.0384 65 24.5048C65 10.9712 53.8071 0 40 0C39.4964 0 38.9962 0.0145964 38.5 0.0433813V8.06274C38.9936 8.02122 39.4939 8 40 8C49.5405 8 57 15.5396 57 24.5048C57 33.47 49.5405 41.0096 40 41.0096C39.4939 41.0096 38.9936 40.9883 38.5 40.9468V48.9662Z" fill="black"/>
</svg>
