<svg width="65" height="83" viewBox="0 0 65 83" fill="none" xmlns="http://www.w3.org/2000/svg">
<path d="M0 62H12M36.5 62H12M12 62V82.5V45M12 45H0M12 45V4H41M12 45H41" stroke="#FF0000" stroke-width="8"/>
<mask id="path-2-inside-1_1457_359" fill="white">
<path fill-rule="evenodd" clip-rule="evenodd" d="M38.5 48.9662C38.9962 48.995 39.4964 49.0096 40 49.0096C53.8071 49.0096 65 38.0384 65 24.5048C65 10.9712 53.8071 0 40 0C39.4964 0 38.9962 0.0145964 38.5 0.0433813V8.06274C38.9936 8.02122 39.4939 8 40 8C49.5405 8 57 15.5396 57 24.5048C57 33.47 49.5405 41.0096 40 41.0096C39.4939 41.0096 38.9936 40.9883 38.5 40.9468V48.9662Z"/>
</mask>
<path fill-rule="evenodd" clip-rule="evenodd" d="M38.5 48.9662C38.9962 48.995 39.4964 49.0096 40 49.0096C53.8071 49.0096 65 38.0384 65 24.5048C65 10.9712 53.8071 0 40 0C39.4964 0 38.9962 0.0145964 38.5 0.0433813V8.06274C38.9936 8.02122 39.4939 8 40 8C49.5405 8 57 15.5396 57 24.5048C57 33.47 49.5405 41.0096 40 41.0096C39.4939 41.0096 38.9936 40.9883 38.5 40.9468V48.9662Z" fill="#FF0000"/>
<path d="M38.5 48.9662H37.5V49.9099L38.4421 49.9645L38.5 48.9662ZM38.5 0.0433813L38.4421 -0.954941L37.5 -0.900294V0.0433813H38.5ZM38.5 8.06274H37.5V9.1504L38.5838 9.05922L38.5 8.06274ZM38.5 40.9468L38.5838 39.9503L37.5 39.8592V40.9468H38.5ZM38.4421 49.9645C38.9576 49.9944 39.4771 50.0096 40 50.0096V48.0096C39.5157 48.0096 39.0349 47.9955 38.5579 47.9679L38.4421 49.9645ZM40 50.0096C54.3404 50.0096 66 38.6095 66 24.5048H64C64 37.4674 53.2738 48.0096 40 48.0096V50.0096ZM66 24.5048C66 10.4001 54.3404 -1 40 -1V1C53.2738 1 64 11.5422 64 24.5048H66ZM40 -1C39.4771 -1 38.9576 -0.984843 38.4421 -0.954941L38.5579 1.0417C39.0349 1.01404 39.5157 1 40 1V-1ZM37.5 0.0433813V8.06274H39.5V0.0433813H37.5ZM40 7C39.4659 7 38.9377 7.02239 38.4162 7.06626L38.5838 9.05922C39.0495 9.02005 39.5218 9 40 9V7ZM58 24.5048C58 14.9712 50.0766 7 40 7V9C49.0044 9 56 16.1079 56 24.5048H58ZM40 42.0096C50.0766 42.0096 58 34.0383 58 24.5048H56C56 32.9016 49.0044 40.0096 40 40.0096V42.0096ZM38.4162 41.9433C38.9377 41.9872 39.4659 42.0096 40 42.0096V40.0096C39.5218 40.0096 39.0495 39.9895 38.5838 39.9503L38.4162 41.9433ZM37.5 40.9468V48.9662H39.5V40.9468H37.5Z" fill="#FF0000" mask="url(#path-2-inside-1_1457_359)"/>
</svg>
